<mxfile host="app.diagrams.net" agent="Mozilla/5.0 (Windows NT 10.0; Win64; x64; rv:133.0) Gecko/20100101 Firefox/133.0" version="24.9.2">
  <diagram id="C5RBs43oDa-KdzZeNtuy" name="Page-1">
    <mxGraphModel dx="1274" dy="702" grid="1" gridSize="10" guides="1" tooltips="1" connect="1" arrows="1" fold="1" page="1" pageScale="1" pageWidth="827" pageHeight="1169" math="0" shadow="0">
      <root>
        <mxCell id="WIyWlLk6GJQsqaUBKTNV-0" />
        <mxCell id="WIyWlLk6GJQsqaUBKTNV-1" parent="WIyWlLk6GJQsqaUBKTNV-0" />
        <mxCell id="WIyWlLk6GJQsqaUBKTNV-2" value="" style="rounded=0;html=1;jettySize=auto;orthogonalLoop=1;fontSize=11;endArrow=block;endFill=0;endSize=8;strokeWidth=1;shadow=0;labelBackgroundColor=none;edgeStyle=orthogonalEdgeStyle;" parent="WIyWlLk6GJQsqaUBKTNV-1" source="WIyWlLk6GJQsqaUBKTNV-3" edge="1">
          <mxGeometry relative="1" as="geometry">
            <mxPoint x="220.0344827586207" y="170.02758620689656" as="targetPoint" />
          </mxGeometry>
        </mxCell>
        <mxCell id="WIyWlLk6GJQsqaUBKTNV-3" value="Начало" style="rounded=1;whiteSpace=wrap;html=1;fontSize=12;glass=0;strokeWidth=1;shadow=0;" parent="WIyWlLk6GJQsqaUBKTNV-1" vertex="1">
          <mxGeometry x="240" y="50" width="120" height="40" as="geometry" />
        </mxCell>
        <mxCell id="movLkcahRa3hKP9TegVr-1" value="" style="swimlane;startSize=0;" vertex="1" parent="WIyWlLk6GJQsqaUBKTNV-1">
          <mxGeometry x="140" y="170" width="530" height="330" as="geometry">
            <mxRectangle x="140" y="170" width="50" height="40" as="alternateBounds" />
          </mxGeometry>
        </mxCell>
        <mxCell id="movLkcahRa3hKP9TegVr-21" style="edgeStyle=orthogonalEdgeStyle;rounded=0;orthogonalLoop=1;jettySize=auto;html=1;exitX=1;exitY=0.5;exitDx=0;exitDy=0;" edge="1" parent="movLkcahRa3hKP9TegVr-1" source="movLkcahRa3hKP9TegVr-4" target="movLkcahRa3hKP9TegVr-7">
          <mxGeometry relative="1" as="geometry" />
        </mxCell>
        <mxCell id="movLkcahRa3hKP9TegVr-4" value="Старт" style="rounded=1;whiteSpace=wrap;html=1;" vertex="1" parent="movLkcahRa3hKP9TegVr-1">
          <mxGeometry x="20" y="10" width="50" height="20" as="geometry" />
        </mxCell>
        <mxCell id="movLkcahRa3hKP9TegVr-7" value="&amp;nbsp;Получить ближайшее событие" style="shape=step;perimeter=stepPerimeter;whiteSpace=wrap;html=1;fixedSize=1;" vertex="1" parent="movLkcahRa3hKP9TegVr-1">
          <mxGeometry x="180" y="30" width="170" height="80" as="geometry" />
        </mxCell>
        <mxCell id="movLkcahRa3hKP9TegVr-22" style="edgeStyle=orthogonalEdgeStyle;rounded=0;orthogonalLoop=1;jettySize=auto;html=1;exitX=1;exitY=1;exitDx=0;exitDy=0;entryX=0;entryY=0.5;entryDx=0;entryDy=0;" edge="1" parent="movLkcahRa3hKP9TegVr-1" source="movLkcahRa3hKP9TegVr-15" target="movLkcahRa3hKP9TegVr-20">
          <mxGeometry relative="1" as="geometry" />
        </mxCell>
        <mxCell id="movLkcahRa3hKP9TegVr-15" value="" style="shape=dataStorage;whiteSpace=wrap;html=1;fixedSize=1;" vertex="1" parent="movLkcahRa3hKP9TegVr-1">
          <mxGeometry x="80" y="150" width="100" height="80" as="geometry" />
        </mxCell>
        <mxCell id="movLkcahRa3hKP9TegVr-16" style="edgeStyle=orthogonalEdgeStyle;rounded=0;orthogonalLoop=1;jettySize=auto;html=1;exitX=1;exitY=0.5;exitDx=0;exitDy=0;entryX=0.841;entryY=0.528;entryDx=0;entryDy=0;entryPerimeter=0;" edge="1" parent="movLkcahRa3hKP9TegVr-1" source="movLkcahRa3hKP9TegVr-7" target="movLkcahRa3hKP9TegVr-15">
          <mxGeometry relative="1" as="geometry" />
        </mxCell>
        <mxCell id="movLkcahRa3hKP9TegVr-26" style="edgeStyle=orthogonalEdgeStyle;rounded=0;orthogonalLoop=1;jettySize=auto;html=1;exitX=1;exitY=0.5;exitDx=0;exitDy=0;entryX=0.5;entryY=0;entryDx=0;entryDy=0;" edge="1" parent="movLkcahRa3hKP9TegVr-1" source="movLkcahRa3hKP9TegVr-20" target="movLkcahRa3hKP9TegVr-25">
          <mxGeometry relative="1" as="geometry" />
        </mxCell>
        <mxCell id="movLkcahRa3hKP9TegVr-27" value="Да" style="edgeLabel;html=1;align=center;verticalAlign=middle;resizable=0;points=[];" vertex="1" connectable="0" parent="movLkcahRa3hKP9TegVr-26">
          <mxGeometry x="-0.0573" y="-2" relative="1" as="geometry">
            <mxPoint y="1" as="offset" />
          </mxGeometry>
        </mxCell>
        <mxCell id="movLkcahRa3hKP9TegVr-20" value="Количество реквестов меньше N" style="rhombus;whiteSpace=wrap;html=1;" vertex="1" parent="movLkcahRa3hKP9TegVr-1">
          <mxGeometry x="274" y="150" width="150" height="95" as="geometry" />
        </mxCell>
        <mxCell id="movLkcahRa3hKP9TegVr-25" value="Создаем следующие отправления" style="shape=step;perimeter=stepPerimeter;whiteSpace=wrap;html=1;fixedSize=1;" vertex="1" parent="movLkcahRa3hKP9TegVr-1">
          <mxGeometry x="410" y="230" width="120" height="80" as="geometry" />
        </mxCell>
        <mxCell id="movLkcahRa3hKP9TegVr-2" value="&lt;font style=&quot;font-size: 16px;&quot;&gt;Получить следующий шаг&lt;/font&gt;" style="text;strokeColor=none;fillColor=none;html=1;fontSize=24;fontStyle=1;verticalAlign=middle;align=center;" vertex="1" parent="WIyWlLk6GJQsqaUBKTNV-1">
          <mxGeometry x="240" y="130" width="100" height="40" as="geometry" />
        </mxCell>
        <mxCell id="movLkcahRa3hKP9TegVr-19" style="edgeStyle=orthogonalEdgeStyle;rounded=0;orthogonalLoop=1;jettySize=auto;html=1;exitX=1;exitY=0.5;exitDx=0;exitDy=0;entryX=1;entryY=0;entryDx=0;entryDy=0;" edge="1" parent="WIyWlLk6GJQsqaUBKTNV-1" source="movLkcahRa3hKP9TegVr-17" target="movLkcahRa3hKP9TegVr-1">
          <mxGeometry relative="1" as="geometry" />
        </mxCell>
        <mxCell id="movLkcahRa3hKP9TegVr-17" value="Обрабатываем событие" style="shape=step;perimeter=stepPerimeter;whiteSpace=wrap;html=1;fixedSize=1;" vertex="1" parent="WIyWlLk6GJQsqaUBKTNV-1">
          <mxGeometry x="280" y="545" width="120" height="80" as="geometry" />
        </mxCell>
        <mxCell id="movLkcahRa3hKP9TegVr-23" style="edgeStyle=orthogonalEdgeStyle;rounded=0;orthogonalLoop=1;jettySize=auto;html=1;exitX=0.5;exitY=1;exitDx=0;exitDy=0;entryX=0.5;entryY=0;entryDx=0;entryDy=0;" edge="1" parent="WIyWlLk6GJQsqaUBKTNV-1" source="movLkcahRa3hKP9TegVr-20" target="movLkcahRa3hKP9TegVr-17">
          <mxGeometry relative="1" as="geometry" />
        </mxCell>
        <mxCell id="movLkcahRa3hKP9TegVr-24" value="Нет" style="edgeLabel;html=1;align=center;verticalAlign=middle;resizable=0;points=[];" vertex="1" connectable="0" parent="movLkcahRa3hKP9TegVr-23">
          <mxGeometry x="-0.19" y="-2" relative="1" as="geometry">
            <mxPoint as="offset" />
          </mxGeometry>
        </mxCell>
        <mxCell id="movLkcahRa3hKP9TegVr-28" style="edgeStyle=orthogonalEdgeStyle;rounded=0;orthogonalLoop=1;jettySize=auto;html=1;exitX=0.5;exitY=1;exitDx=0;exitDy=0;entryX=0.75;entryY=0;entryDx=0;entryDy=0;" edge="1" parent="WIyWlLk6GJQsqaUBKTNV-1" source="movLkcahRa3hKP9TegVr-25" target="movLkcahRa3hKP9TegVr-17">
          <mxGeometry relative="1" as="geometry" />
        </mxCell>
      </root>
    </mxGraphModel>
  </diagram>
</mxfile>
